<mxfile modified="2024-05-07T15:01:47.425Z" host="app.diagrams.net" agent="Mozilla/5.0 (Windows NT 10.0; Win64; x64) AppleWebKit/537.36 (KHTML, like Gecko) Chrome/124.0.0.0 Safari/537.36" etag="eUICH_1MKrk0lc-B6s35" version="24.3.1" type="device">
  <diagram id="Ht1M8jgEwFfnCIfOTk4-" name="Page-1">
    <mxGraphModel dx="2534" dy="696" grid="1" gridSize="10" guides="1" tooltips="1" connect="1" arrows="1" fold="1" page="1" pageScale="1" pageWidth="1169" pageHeight="827" math="0" shadow="0">
      <root>
        <mxCell id="0" />
        <mxCell id="1" parent="0" />
        <mxCell id="UEzPUAAOIrF-is8g5C7q-74" value="AWS Cloud" style="points=[[0,0],[0.25,0],[0.5,0],[0.75,0],[1,0],[1,0.25],[1,0.5],[1,0.75],[1,1],[0.75,1],[0.5,1],[0.25,1],[0,1],[0,0.75],[0,0.5],[0,0.25]];outlineConnect=0;gradientColor=none;html=1;whiteSpace=wrap;fontSize=12;fontStyle=0;shape=mxgraph.aws4.group;grIcon=mxgraph.aws4.group_aws_cloud_alt;strokeColor=#232F3E;fillColor=none;verticalAlign=top;align=left;spacingLeft=30;fontColor=#232F3E;dashed=0;labelBackgroundColor=#ffffff;container=1;pointerEvents=0;collapsible=0;recursiveResize=0;" parent="1" vertex="1">
          <mxGeometry x="20" y="110" width="960" height="592" as="geometry" />
        </mxCell>
        <mxCell id="zx_vNXkBzNk3PJklBw1O-7" value="Region" style="points=[[0,0],[0.25,0],[0.5,0],[0.75,0],[1,0],[1,0.25],[1,0.5],[1,0.75],[1,1],[0.75,1],[0.5,1],[0.25,1],[0,1],[0,0.75],[0,0.5],[0,0.25]];outlineConnect=0;gradientColor=none;html=1;whiteSpace=wrap;fontSize=12;fontStyle=0;container=1;pointerEvents=0;collapsible=0;recursiveResize=0;shape=mxgraph.aws4.group;grIcon=mxgraph.aws4.group_region;strokeColor=#00A4A6;fillColor=none;verticalAlign=top;align=left;spacingLeft=30;fontColor=#147EBA;dashed=1;" parent="UEzPUAAOIrF-is8g5C7q-74" vertex="1">
          <mxGeometry x="25" y="40" width="915" height="552" as="geometry" />
        </mxCell>
        <mxCell id="UEzPUAAOIrF-is8g5C7q-98" value="Bucket" style="outlineConnect=0;fontColor=#232F3E;gradientColor=none;fillColor=#277116;strokeColor=none;dashed=0;verticalLabelPosition=bottom;verticalAlign=top;align=center;html=1;fontSize=12;fontStyle=0;aspect=fixed;pointerEvents=1;shape=mxgraph.aws4.bucket;labelBackgroundColor=#ffffff;" parent="zx_vNXkBzNk3PJklBw1O-7" vertex="1">
          <mxGeometry x="15" y="310" width="65.38" height="68" as="geometry" />
        </mxCell>
        <mxCell id="8ocVus76OIc4vdGeG9Ae-1" value="" style="sketch=0;outlineConnect=0;fontColor=#232F3E;gradientColor=none;fillColor=#8C4FFF;strokeColor=none;dashed=0;verticalLabelPosition=bottom;verticalAlign=top;align=center;html=1;fontSize=12;fontStyle=0;aspect=fixed;pointerEvents=1;shape=mxgraph.aws4.internet_gateway;" parent="zx_vNXkBzNk3PJklBw1O-7" vertex="1">
          <mxGeometry x="840" y="200" width="70" height="70" as="geometry" />
        </mxCell>
        <mxCell id="zx_vNXkBzNk3PJklBw1O-8" value="VPC" style="points=[[0,0],[0.25,0],[0.5,0],[0.75,0],[1,0],[1,0.25],[1,0.5],[1,0.75],[1,1],[0.75,1],[0.5,1],[0.25,1],[0,1],[0,0.75],[0,0.5],[0,0.25]];outlineConnect=0;gradientColor=none;html=1;whiteSpace=wrap;fontSize=12;fontStyle=0;container=1;pointerEvents=0;collapsible=0;recursiveResize=0;shape=mxgraph.aws4.group;grIcon=mxgraph.aws4.group_vpc2;strokeColor=#8C4FFF;fillColor=none;verticalAlign=top;align=left;spacingLeft=30;fontColor=#AAB7B8;dashed=0;" parent="zx_vNXkBzNk3PJklBw1O-7" vertex="1">
          <mxGeometry x="90" y="40" width="730" height="378" as="geometry" />
        </mxCell>
        <mxCell id="zx_vNXkBzNk3PJklBw1O-10" value="Availability Zone 1" style="fillColor=none;strokeColor=#147EBA;dashed=1;verticalAlign=top;fontStyle=0;fontColor=#147EBA;whiteSpace=wrap;html=1;" parent="zx_vNXkBzNk3PJklBw1O-8" vertex="1">
          <mxGeometry x="20" y="50" width="290" height="260" as="geometry" />
        </mxCell>
        <mxCell id="8ocVus76OIc4vdGeG9Ae-3" value="Private subnet" style="points=[[0,0],[0.25,0],[0.5,0],[0.75,0],[1,0],[1,0.25],[1,0.5],[1,0.75],[1,1],[0.75,1],[0.5,1],[0.25,1],[0,1],[0,0.75],[0,0.5],[0,0.25]];outlineConnect=0;gradientColor=none;html=1;whiteSpace=wrap;fontSize=12;fontStyle=0;container=1;pointerEvents=0;collapsible=0;recursiveResize=0;shape=mxgraph.aws4.group;grIcon=mxgraph.aws4.group_security_group;grStroke=0;strokeColor=#00A4A6;fillColor=#E6F6F7;verticalAlign=top;align=left;spacingLeft=30;fontColor=#147EBA;dashed=0;" parent="zx_vNXkBzNk3PJklBw1O-8" vertex="1">
          <mxGeometry x="190" y="140" width="120" height="150" as="geometry" />
        </mxCell>
        <mxCell id="8ocVus76OIc4vdGeG9Ae-4" value="Public subnet" style="points=[[0,0],[0.25,0],[0.5,0],[0.75,0],[1,0],[1,0.25],[1,0.5],[1,0.75],[1,1],[0.75,1],[0.5,1],[0.25,1],[0,1],[0,0.75],[0,0.5],[0,0.25]];outlineConnect=0;gradientColor=none;html=1;whiteSpace=wrap;fontSize=12;fontStyle=0;container=1;pointerEvents=0;collapsible=0;recursiveResize=0;shape=mxgraph.aws4.group;grIcon=mxgraph.aws4.group_security_group;grStroke=0;strokeColor=#7AA116;fillColor=#F2F6E8;verticalAlign=top;align=left;spacingLeft=30;fontColor=#248814;dashed=0;" parent="zx_vNXkBzNk3PJklBw1O-8" vertex="1">
          <mxGeometry x="20" y="140" width="120" height="150" as="geometry" />
        </mxCell>
        <mxCell id="j8e6G9BwGEH6RbJSIo_M-19" value="" style="sketch=0;outlineConnect=0;fontColor=#232F3E;gradientColor=none;fillColor=#8C4FFF;strokeColor=none;dashed=0;verticalLabelPosition=bottom;verticalAlign=top;align=center;html=1;fontSize=12;fontStyle=0;aspect=fixed;pointerEvents=1;shape=mxgraph.aws4.nat_gateway;" vertex="1" parent="8ocVus76OIc4vdGeG9Ae-4">
          <mxGeometry x="21" y="45" width="78" height="78" as="geometry" />
        </mxCell>
        <mxCell id="8ocVus76OIc4vdGeG9Ae-5" value="Availability Zone 2" style="fillColor=none;strokeColor=#147EBA;dashed=1;verticalAlign=top;fontStyle=0;fontColor=#147EBA;whiteSpace=wrap;html=1;" parent="zx_vNXkBzNk3PJklBw1O-8" vertex="1">
          <mxGeometry x="410" y="50" width="290" height="260" as="geometry" />
        </mxCell>
        <mxCell id="8ocVus76OIc4vdGeG9Ae-15" value="Public subnet" style="points=[[0,0],[0.25,0],[0.5,0],[0.75,0],[1,0],[1,0.25],[1,0.5],[1,0.75],[1,1],[0.75,1],[0.5,1],[0.25,1],[0,1],[0,0.75],[0,0.5],[0,0.25]];outlineConnect=0;gradientColor=none;html=1;whiteSpace=wrap;fontSize=12;fontStyle=0;container=1;pointerEvents=0;collapsible=0;recursiveResize=0;shape=mxgraph.aws4.group;grIcon=mxgraph.aws4.group_security_group;grStroke=0;strokeColor=#7AA116;fillColor=#F2F6E8;verticalAlign=top;align=left;spacingLeft=30;fontColor=#248814;dashed=0;" parent="zx_vNXkBzNk3PJklBw1O-8" vertex="1">
          <mxGeometry x="580" y="140" width="120" height="150" as="geometry" />
        </mxCell>
        <mxCell id="j8e6G9BwGEH6RbJSIo_M-20" value="" style="sketch=0;outlineConnect=0;fontColor=#232F3E;gradientColor=none;fillColor=#8C4FFF;strokeColor=none;dashed=0;verticalLabelPosition=bottom;verticalAlign=top;align=center;html=1;fontSize=12;fontStyle=0;aspect=fixed;pointerEvents=1;shape=mxgraph.aws4.nat_gateway;" vertex="1" parent="8ocVus76OIc4vdGeG9Ae-15">
          <mxGeometry x="21" y="37" width="78" height="78" as="geometry" />
        </mxCell>
        <mxCell id="8ocVus76OIc4vdGeG9Ae-18" value="Auto Scaling group" style="points=[[0,0],[0.25,0],[0.5,0],[0.75,0],[1,0],[1,0.25],[1,0.5],[1,0.75],[1,1],[0.75,1],[0.5,1],[0.25,1],[0,1],[0,0.75],[0,0.5],[0,0.25]];outlineConnect=0;gradientColor=none;html=1;whiteSpace=wrap;fontSize=12;fontStyle=0;container=1;pointerEvents=0;collapsible=0;recursiveResize=0;shape=mxgraph.aws4.groupCenter;grIcon=mxgraph.aws4.group_auto_scaling_group;grStroke=1;strokeColor=#D86613;fillColor=none;verticalAlign=top;align=center;fontColor=#D86613;dashed=1;spacingTop=25;" parent="zx_vNXkBzNk3PJklBw1O-8" vertex="1">
          <mxGeometry x="160" y="-100" width="400" height="400" as="geometry" />
        </mxCell>
        <mxCell id="8ocVus76OIc4vdGeG9Ae-16" value="Private subnet" style="points=[[0,0],[0.25,0],[0.5,0],[0.75,0],[1,0],[1,0.25],[1,0.5],[1,0.75],[1,1],[0.75,1],[0.5,1],[0.25,1],[0,1],[0,0.75],[0,0.5],[0,0.25]];outlineConnect=0;gradientColor=none;html=1;whiteSpace=wrap;fontSize=12;fontStyle=0;container=1;pointerEvents=0;collapsible=0;recursiveResize=0;shape=mxgraph.aws4.group;grIcon=mxgraph.aws4.group_security_group;grStroke=0;strokeColor=#00A4A6;fillColor=#E6F6F7;verticalAlign=top;align=left;spacingLeft=30;fontColor=#147EBA;dashed=0;" parent="8ocVus76OIc4vdGeG9Ae-18" vertex="1">
          <mxGeometry x="250" y="240" width="120" height="150" as="geometry" />
        </mxCell>
        <mxCell id="8ocVus76OIc4vdGeG9Ae-17" value="Security group" style="fillColor=none;strokeColor=#DD3522;verticalAlign=top;fontStyle=0;fontColor=#DD3522;whiteSpace=wrap;html=1;" parent="8ocVus76OIc4vdGeG9Ae-18" vertex="1">
          <mxGeometry x="70" y="265" width="260" height="105" as="geometry" />
        </mxCell>
        <mxCell id="j8e6G9BwGEH6RbJSIo_M-15" value="" style="sketch=0;outlineConnect=0;fontColor=#232F3E;gradientColor=none;fillColor=#8C4FFF;strokeColor=none;dashed=0;verticalLabelPosition=bottom;verticalAlign=top;align=center;html=1;fontSize=12;fontStyle=0;aspect=fixed;pointerEvents=1;shape=mxgraph.aws4.router;" vertex="1" parent="8ocVus76OIc4vdGeG9Ae-18">
          <mxGeometry x="165" y="110" width="60" height="60" as="geometry" />
        </mxCell>
        <mxCell id="j8e6G9BwGEH6RbJSIo_M-25" value="" style="sketch=0;outlineConnect=0;fontColor=#232F3E;gradientColor=none;fillColor=#ED7100;strokeColor=none;dashed=0;verticalLabelPosition=bottom;verticalAlign=top;align=center;html=1;fontSize=12;fontStyle=0;aspect=fixed;pointerEvents=1;shape=mxgraph.aws4.instances;" vertex="1" parent="8ocVus76OIc4vdGeG9Ae-18">
          <mxGeometry x="80" y="291" width="48" height="48" as="geometry" />
        </mxCell>
        <mxCell id="j8e6G9BwGEH6RbJSIo_M-26" value="" style="sketch=0;outlineConnect=0;fontColor=#232F3E;gradientColor=none;fillColor=#ED7100;strokeColor=none;dashed=0;verticalLabelPosition=bottom;verticalAlign=top;align=center;html=1;fontSize=12;fontStyle=0;aspect=fixed;pointerEvents=1;shape=mxgraph.aws4.instances;" vertex="1" parent="8ocVus76OIc4vdGeG9Ae-18">
          <mxGeometry x="265" y="300" width="48" height="48" as="geometry" />
        </mxCell>
        <mxCell id="j8e6G9BwGEH6RbJSIo_M-10" value="" style="sketch=0;outlineConnect=0;fontColor=#232F3E;gradientColor=none;fillColor=#8C4FFF;strokeColor=none;dashed=0;verticalLabelPosition=bottom;verticalAlign=top;align=center;html=1;fontSize=12;fontStyle=0;aspect=fixed;pointerEvents=1;shape=mxgraph.aws4.route_table;" vertex="1" parent="zx_vNXkBzNk3PJklBw1O-7">
          <mxGeometry x="135" y="450" width="78" height="76" as="geometry" />
        </mxCell>
        <mxCell id="j8e6G9BwGEH6RbJSIo_M-12" value="" style="sketch=0;outlineConnect=0;fontColor=#232F3E;gradientColor=none;fillColor=#8C4FFF;strokeColor=none;dashed=0;verticalLabelPosition=bottom;verticalAlign=top;align=center;html=1;fontSize=12;fontStyle=0;aspect=fixed;pointerEvents=1;shape=mxgraph.aws4.route_table;" vertex="1" parent="zx_vNXkBzNk3PJklBw1O-7">
          <mxGeometry x="295" y="450" width="78" height="76" as="geometry" />
        </mxCell>
        <mxCell id="j8e6G9BwGEH6RbJSIo_M-13" value="" style="sketch=0;outlineConnect=0;fontColor=#232F3E;gradientColor=none;fillColor=#8C4FFF;strokeColor=none;dashed=0;verticalLabelPosition=bottom;verticalAlign=top;align=center;html=1;fontSize=12;fontStyle=0;aspect=fixed;pointerEvents=1;shape=mxgraph.aws4.route_table;" vertex="1" parent="zx_vNXkBzNk3PJklBw1O-7">
          <mxGeometry x="525" y="450" width="78" height="76" as="geometry" />
        </mxCell>
        <mxCell id="j8e6G9BwGEH6RbJSIo_M-14" value="" style="sketch=0;outlineConnect=0;fontColor=#232F3E;gradientColor=none;fillColor=#8C4FFF;strokeColor=none;dashed=0;verticalLabelPosition=bottom;verticalAlign=top;align=center;html=1;fontSize=12;fontStyle=0;aspect=fixed;pointerEvents=1;shape=mxgraph.aws4.route_table;" vertex="1" parent="zx_vNXkBzNk3PJklBw1O-7">
          <mxGeometry x="691" y="450" width="78" height="76" as="geometry" />
        </mxCell>
        <mxCell id="j8e6G9BwGEH6RbJSIo_M-18" value="Security group" style="fillColor=none;strokeColor=#DD3522;verticalAlign=top;fontStyle=0;fontColor=#DD3522;whiteSpace=wrap;html=1;" vertex="1" parent="zx_vNXkBzNk3PJklBw1O-7">
          <mxGeometry x="385" y="430" width="115" height="112" as="geometry" />
        </mxCell>
        <mxCell id="j8e6G9BwGEH6RbJSIo_M-39" style="edgeStyle=orthogonalEdgeStyle;rounded=0;orthogonalLoop=1;jettySize=auto;html=1;" edge="1" parent="zx_vNXkBzNk3PJklBw1O-7" source="j8e6G9BwGEH6RbJSIo_M-11" target="j8e6G9BwGEH6RbJSIo_M-25">
          <mxGeometry relative="1" as="geometry">
            <Array as="points">
              <mxPoint x="443" y="260" />
            </Array>
          </mxGeometry>
        </mxCell>
        <mxCell id="j8e6G9BwGEH6RbJSIo_M-40" style="edgeStyle=orthogonalEdgeStyle;rounded=0;orthogonalLoop=1;jettySize=auto;html=1;" edge="1" parent="zx_vNXkBzNk3PJklBw1O-7" source="j8e6G9BwGEH6RbJSIo_M-11" target="j8e6G9BwGEH6RbJSIo_M-26">
          <mxGeometry relative="1" as="geometry">
            <Array as="points">
              <mxPoint x="443" y="260" />
            </Array>
          </mxGeometry>
        </mxCell>
        <mxCell id="j8e6G9BwGEH6RbJSIo_M-11" value="" style="sketch=0;outlineConnect=0;fontColor=#232F3E;gradientColor=none;fillColor=#8C4FFF;strokeColor=none;dashed=0;verticalLabelPosition=bottom;verticalAlign=top;align=center;html=1;fontSize=12;fontStyle=0;aspect=fixed;pointerEvents=1;shape=mxgraph.aws4.application_load_balancer;" vertex="1" parent="zx_vNXkBzNk3PJklBw1O-7">
          <mxGeometry x="406.25" y="453.5" width="72.5" height="72.5" as="geometry" />
        </mxCell>
        <mxCell id="j8e6G9BwGEH6RbJSIo_M-21" style="edgeStyle=orthogonalEdgeStyle;rounded=0;orthogonalLoop=1;jettySize=auto;html=1;entryX=0.221;entryY=0.885;entryDx=0;entryDy=0;entryPerimeter=0;" edge="1" parent="zx_vNXkBzNk3PJklBw1O-7" source="j8e6G9BwGEH6RbJSIo_M-10" target="zx_vNXkBzNk3PJklBw1O-10">
          <mxGeometry relative="1" as="geometry" />
        </mxCell>
        <mxCell id="j8e6G9BwGEH6RbJSIo_M-22" style="edgeStyle=orthogonalEdgeStyle;rounded=0;orthogonalLoop=1;jettySize=auto;html=1;entryX=0.772;entryY=0.923;entryDx=0;entryDy=0;entryPerimeter=0;" edge="1" parent="zx_vNXkBzNk3PJklBw1O-7" source="j8e6G9BwGEH6RbJSIo_M-12" target="zx_vNXkBzNk3PJklBw1O-10">
          <mxGeometry relative="1" as="geometry" />
        </mxCell>
        <mxCell id="j8e6G9BwGEH6RbJSIo_M-23" style="edgeStyle=orthogonalEdgeStyle;rounded=0;orthogonalLoop=1;jettySize=auto;html=1;entryX=0.221;entryY=0.923;entryDx=0;entryDy=0;entryPerimeter=0;" edge="1" parent="zx_vNXkBzNk3PJklBw1O-7" source="j8e6G9BwGEH6RbJSIo_M-13" target="8ocVus76OIc4vdGeG9Ae-5">
          <mxGeometry relative="1" as="geometry" />
        </mxCell>
        <mxCell id="j8e6G9BwGEH6RbJSIo_M-24" style="edgeStyle=orthogonalEdgeStyle;rounded=0;orthogonalLoop=1;jettySize=auto;html=1;entryX=0.793;entryY=0.885;entryDx=0;entryDy=0;entryPerimeter=0;" edge="1" parent="zx_vNXkBzNk3PJklBw1O-7" source="j8e6G9BwGEH6RbJSIo_M-14" target="8ocVus76OIc4vdGeG9Ae-5">
          <mxGeometry relative="1" as="geometry" />
        </mxCell>
        <mxCell id="8ocVus76OIc4vdGeG9Ae-2" value="" style="sketch=0;outlineConnect=0;fontColor=#232F3E;gradientColor=none;fillColor=#DD344C;strokeColor=none;dashed=0;verticalLabelPosition=bottom;verticalAlign=top;align=center;html=1;fontSize=12;fontStyle=0;aspect=fixed;pointerEvents=1;shape=mxgraph.aws4.role;" parent="1" vertex="1">
          <mxGeometry x="-110" y="300" width="70.91" height="40" as="geometry" />
        </mxCell>
        <mxCell id="8ocVus76OIc4vdGeG9Ae-20" value="" style="sketch=0;outlineConnect=0;fontColor=#232F3E;gradientColor=none;fillColor=#232F3D;strokeColor=none;dashed=0;verticalLabelPosition=bottom;verticalAlign=top;align=center;html=1;fontSize=12;fontStyle=0;aspect=fixed;pointerEvents=1;shape=mxgraph.aws4.internet;" parent="1" vertex="1">
          <mxGeometry x="1020" y="361" width="78" height="48" as="geometry" />
        </mxCell>
        <mxCell id="8ocVus76OIc4vdGeG9Ae-21" style="edgeStyle=orthogonalEdgeStyle;rounded=0;orthogonalLoop=1;jettySize=auto;html=1;" parent="1" source="8ocVus76OIc4vdGeG9Ae-1" target="8ocVus76OIc4vdGeG9Ae-20" edge="1">
          <mxGeometry relative="1" as="geometry" />
        </mxCell>
        <mxCell id="8ocVus76OIc4vdGeG9Ae-25" style="edgeStyle=orthogonalEdgeStyle;rounded=0;orthogonalLoop=1;jettySize=auto;html=1;entryX=-0.007;entryY=0.675;entryDx=0;entryDy=0;entryPerimeter=0;" parent="1" source="8ocVus76OIc4vdGeG9Ae-2" target="zx_vNXkBzNk3PJklBw1O-7" edge="1">
          <mxGeometry relative="1" as="geometry">
            <Array as="points">
              <mxPoint x="-70" y="523" />
            </Array>
          </mxGeometry>
        </mxCell>
        <mxCell id="j8e6G9BwGEH6RbJSIo_M-2" style="edgeStyle=orthogonalEdgeStyle;rounded=0;orthogonalLoop=1;jettySize=auto;html=1;exitX=0.5;exitY=0;exitDx=0;exitDy=0;" edge="1" parent="1" source="8ocVus76OIc4vdGeG9Ae-18" target="8ocVus76OIc4vdGeG9Ae-2">
          <mxGeometry relative="1" as="geometry">
            <Array as="points">
              <mxPoint x="495" y="70" />
              <mxPoint x="-75" y="70" />
            </Array>
          </mxGeometry>
        </mxCell>
      </root>
    </mxGraphModel>
  </diagram>
</mxfile>
